<?xml version="1.0" standalone="no"?>
<!DOCTYPE svg PUBLIC "-//W3C//DTD SVG 20010904//EN"
 "http://www.w3.org/TR/2001/REC-SVG-20010904/DTD/svg10.dtd">
<svg version="1.0" xmlns="http://www.w3.org/2000/svg"
 width="246.000000pt" height="246.000000pt" viewBox="0 0 246.000000 246.000000"
 preserveAspectRatio="xMidYMid meet">
<metadata>
Created by potrace 1.11, written by Peter Selinger 2001-2013
</metadata>
<g transform="translate(0.000000,246.000000) scale(0.100000,-0.100000)"
fill="#000000" stroke="none">
<path d="M1820 2298 c-47 -84 -124 -232 -173 -328 -98 -197 -159 -292 -196
-311 -19 -10 -102 -13 -311 -14 -252 -2 -324 -5 -396 -19 -209 -41 -395 -151
-467 -276 -52 -90 -64 -206 -32 -316 l15 -52 -81 -173 c-44 -96 -93 -200 -109
-232 l-28 -57 37 22 c20 12 102 66 184 120 81 54 149 98 151 98 3 0 11 -6 18
-13 7 -7 42 -34 77 -60 131 -97 294 -151 457 -152 l91 0 -24 -47 -24 -47 -64
25 c-68 25 -101 29 -123 15 -21 -13 17 -49 58 -56 19 -3 36 -7 38 -9 1 -2 -24
-8 -56 -15 -66 -13 -82 -24 -75 -52 6 -23 15 -23 78 -4 27 8 50 13 52 11 2 -1
-11 -15 -27 -31 -32 -31 -39 -62 -15 -71 9 -4 37 17 75 54 62 62 104 83 210
106 37 8 56 17 58 28 6 29 -29 38 -86 24 l-51 -14 18 46 c17 44 21 46 80 62
165 46 323 158 443 315 32 41 46 54 65 60 21 6 20 3 -14 -82 -70 -176 -117
-281 -193 -439 l-78 -160 -99 -26 c-142 -38 -155 -44 -151 -70 3 -26 31 -35
62 -19 19 9 127 51 133 51 2 0 -15 -18 -37 -41 -45 -47 -58 -78 -39 -90 21
-13 24 -12 53 30 15 21 38 49 52 62 l25 23 -26 -57 c-27 -62 -32 -102 -13
-113 18 -12 42 28 72 119 l28 85 42 6 c111 17 123 22 112 52 -5 13 -15 15 -49
11 -23 -3 -52 -9 -65 -13 -21 -6 -19 0 22 82 79 160 200 453 246 599 16 50 17
62 6 73 -11 12 -18 11 -44 -2 l-31 -16 29 71 c52 126 72 273 56 414 l-6 60 62
66 c67 70 152 162 381 413 45 49 105 114 134 145 29 31 53 59 53 63 0 9 -90
29 -140 29 -25 1 -57 -4 -72 -10 -25 -9 -31 -8 -30 9 1 14 13 85 21 120 5 22
6 40 2 40 -3 0 -53 -31 -111 -69 l-105 -68 -6 28 c-9 39 -50 139 -58 139 -3 0
-44 -69 -91 -152z"/>
</g>
</svg>
